<svg width="173" height="46" viewBox="0 0 173 46" fill="none" xmlns="http://www.w3.org/2000/svg">
<path d="M41.511 24.4326C36.1948 24.4326 34.3341 21.265 34.3341 15.4393C34.3341 9.74645 36.1948 6.22444 41.511 6.22444C43.1059 6.22444 44.2578 6.40165 44.9445 6.66746C45.0552 6.68961 45.0774 6.75606 45.0774 6.88897L44.9445 8.88256C44.9445 8.97117 44.878 9.05977 44.7229 8.99332C44.1027 8.77181 42.9287 8.5946 41.8433 8.5946C38.5871 8.5946 37.7011 10.3667 37.7011 15.4614C37.7011 20.2903 38.6757 21.9738 41.8433 21.9738C42.7737 21.9738 43.9255 21.8188 44.6122 21.6637C44.7229 21.6194 44.9001 21.5751 44.9445 21.7523L45.1438 23.6794C45.166 23.8567 45.1217 23.901 45.0331 23.9674C44.147 24.2111 42.818 24.4104 41.4889 24.4104M52.5644 21.1764C53.096 21.7302 53.8049 21.9738 55.5769 21.9738C57.3933 21.9738 58.08 21.7302 58.5895 21.1764C59.4312 20.2903 59.8521 17.8537 59.8521 15.1735C59.8521 12.4489 59.4312 10.3224 58.5895 9.43634C58.08 8.86041 57.3933 8.6389 55.6212 8.6389C53.8049 8.6389 53.096 8.88256 52.5644 9.43634C51.7227 10.3224 51.3239 12.4489 51.3239 15.1735C51.3239 17.8316 51.7227 20.2682 52.5644 21.1542M61.0926 22.6384C59.9407 23.8788 58.2129 24.4104 55.5548 24.4104C52.8524 24.4104 51.2796 23.8788 50.1278 22.6384C48.6215 20.4454 47.8684 17.8316 48.0013 15.1735C48.0013 11.8508 48.8873 9.25913 50.1278 7.90792C51.2796 6.64531 53.0074 6.22444 55.6212 6.22444C58.3237 6.22444 59.9407 6.66746 61.0926 7.90792C62.5767 10.0344 63.3076 12.5818 63.1526 15.1735C63.1526 18.4297 62.2666 21.265 61.0926 22.6384ZM78.459 9.32558C78.459 9.17053 78.3704 9.03762 78.1931 8.94902C77.728 8.77181 76.5983 8.6389 75.6458 8.6389C71.9244 8.6389 70.7504 9.61355 70.7504 15.107C70.7726 20.5119 71.3706 21.996 75.8008 21.996C76.5097 21.996 77.5729 21.9738 78.171 21.7745C78.459 21.6637 78.459 21.5308 78.459 21.3979V9.32558ZM67.3834 15.107C67.3834 8.88256 69.8201 6.22444 75.5793 6.22444C76.7533 6.22444 77.7944 6.44595 78.2374 6.44595C78.3925 6.44595 78.4368 6.31304 78.4368 6.15798V0.310115C78.4368 0.110755 78.5697 0 78.7912 0H81.3164C81.5379 0 81.6709 0.110755 81.6709 0.310115V23.3472C81.6709 23.5244 81.5379 23.6573 81.3164 23.7016C79.5001 24.1668 77.6172 24.4104 75.7344 24.4104C69.0669 24.4104 67.3834 21.8188 67.3834 15.107ZM90.0661 14.0438H97.531C97.8411 14.0438 97.9519 13.9994 97.9519 12.8919C97.9519 9.94581 97.0658 8.5946 94.1197 8.5946C90.6863 8.5946 89.8667 10.8097 89.8667 13.8222C89.8667 13.9551 89.8889 14.0438 90.0661 14.0438ZM94.7843 24.3883C88.1168 24.3883 86.5219 20.3125 86.5219 15.3064C86.5219 10.123 88.4712 6.22444 94.1197 6.22444C99.6575 6.22444 100.942 9.48064 100.942 13.8222V14.7304C100.942 16.0595 100.632 16.3475 100.056 16.3475H90.0661C89.8889 16.3475 89.8446 16.4139 89.8446 16.5911C89.8446 20.9327 91.9268 21.996 95.4709 21.996C97.0658 21.996 98.7936 21.5529 99.8347 21.1099H100.012C100.167 21.1099 100.278 21.1764 100.322 21.2871L100.455 23.0592V23.1257C100.455 23.2586 100.411 23.4136 100.256 23.4801C98.5278 24.1225 96.6892 24.4547 94.8286 24.4104M125.53 24.056H121.166C121.011 24.056 120.945 24.0117 120.878 23.8345L117.622 9.50279C117.556 9.32558 117.511 9.28128 117.268 9.28128C116.98 9.28128 116.913 9.32558 116.847 9.50279C115.916 13.8222 114.056 21.0213 113.258 23.8345C113.192 24.0117 113.081 24.1003 112.86 24.1003H108.584C108.474 24.1003 108.363 23.9453 108.319 23.7902C106.679 18.186 105.195 12.5375 103.866 6.84467C103.866 6.62316 103.91 6.5567 104.088 6.5567H107.056C107.233 6.5567 107.255 6.66746 107.277 6.84467C108.252 11.6736 109.337 16.4804 110.534 21.2428C110.534 21.4422 110.689 21.4643 110.91 21.4643C111.22 21.4643 111.309 21.4422 111.331 21.2428L114.587 6.84467C114.632 6.62316 114.72 6.5567 114.875 6.5567H119.527C119.682 6.5567 119.815 6.66746 119.815 6.84467C120.657 10.9869 122.318 18.0752 123.049 21.2428C123.115 21.4422 123.27 21.4643 123.492 21.4643C123.758 21.4643 123.824 21.4422 123.891 21.2428C124.777 18.0309 126.549 11.0091 127.391 6.84467C127.457 6.62316 127.568 6.5567 127.723 6.5567H130.492C130.625 6.5567 130.713 6.68961 130.713 6.86682C130.27 8.99332 127.08 20.4011 125.951 23.8345C125.884 24.0117 125.796 24.1003 125.574 24.1003M143.317 16.3032C143.317 16.1481 143.229 16.0816 143.096 16.0816H140.039C137.203 16.0816 136.472 16.6797 136.472 19.3157C136.472 21.8852 137.048 22.1953 140.393 22.1953C141.257 22.2175 142.121 22.151 142.985 22.0181C143.295 21.9738 143.295 21.8852 143.295 21.7966L143.317 16.3032ZM135.431 8.99332C135.21 9.03762 134.966 9.03762 134.922 8.86041L134.7 7.22123C134.634 7.04403 134.7 6.84467 134.878 6.77821C136.583 6.35734 138.355 6.15799 140.105 6.20229C144.292 6.20229 146.44 7.66426 146.44 11.5185V23.325C146.44 23.5465 146.352 23.6794 145.997 23.8345C144.248 24.2332 142.475 24.4326 140.681 24.3883C134.833 24.3883 133.15 23.2143 133.15 19.6701C133.15 16.5025 133.925 14.819 138.887 14.221L143.14 13.7336C143.251 13.6893 143.361 13.6672 143.361 13.5121V11.873C143.361 9.32558 142.254 8.70535 139.374 8.70535C138.156 8.70535 136.517 8.86041 135.431 8.99332ZM152.288 6.93327C155.035 6.26874 157.893 6.09153 160.706 6.3795C160.883 6.40165 160.927 6.49025 160.927 6.66746L160.772 8.72751C160.772 8.86041 160.684 8.90471 160.551 8.88256C159.665 8.7275 158.779 8.66105 157.671 8.66105C157.073 8.66105 155.899 8.7275 155.389 8.99332C155.19 9.08192 155.168 9.23698 155.168 9.39204V23.7681C155.168 23.9896 155.013 24.1225 154.769 24.056H152.266C152.045 24.056 151.934 23.9453 151.934 23.7681V7.22123C151.934 7.04403 152.067 6.93327 152.288 6.93327ZM162.478 24.056C162.367 24.056 162.278 24.0117 162.278 23.8567L162.434 21.7523C162.434 21.6637 162.544 21.5751 162.699 21.6194C163.895 21.8409 165.136 21.9738 166.354 21.9738C169.234 21.9738 169.721 21.6637 169.721 19.6037C169.721 18.3854 169.012 17.743 166.266 15.838C163.497 13.8665 162.434 13.0691 162.434 10.9648C162.434 7.5535 163.984 6.22444 168.414 6.22444C169.987 6.22444 171.338 6.31304 172.269 6.49025C172.357 6.49025 172.446 6.5567 172.446 6.71176L172.313 8.79396C172.313 8.90471 172.18 8.97117 172.025 8.94902C171.161 8.79396 169.898 8.6389 168.769 8.6389C166.288 8.6389 165.446 8.79396 165.446 10.6325C165.446 12.0502 166.177 12.5375 168.946 14.3096C171.848 16.1702 172.8 17.455 172.8 19.4265C172.8 23.3029 171.028 24.4104 166.886 24.4104C165.402 24.4326 163.918 24.3218 162.456 24.1003" fill="white"/>
<path d="M7.44275 14.4425C7.70857 14.7969 7.77502 15.2621 7.61996 15.683C8.15158 15.7273 8.57245 16.1481 8.61676 16.6798C9.10408 16.569 9.5914 16.8348 9.76861 17.2778C10.1673 16.9899 10.7433 17.0563 11.0312 17.4772C11.0534 17.4993 11.0534 17.4993 11.0755 17.5215L11.1863 17.4107C11.4299 17.1892 11.8065 17.1671 12.0945 17.3664C12.1388 17.2335 12.2052 17.1228 12.2938 17.0342C12.5375 16.8348 12.8476 16.8127 13.0913 16.9899C13.1356 16.8348 13.2685 16.7241 13.4235 16.7019C13.3128 16.5247 13.2685 16.3253 13.2463 16.126V16.1481C13.0248 16.2146 12.8033 16.1038 12.7368 15.9045C12.7368 15.8823 12.7368 15.8823 12.7147 15.8602C12.5153 15.9709 12.2717 15.9931 12.0723 15.8823C11.873 15.7716 11.7401 15.5722 11.7179 15.3507C11.585 15.395 11.3856 15.4171 11.2306 15.3507C10.854 15.2178 10.6547 14.8191 10.7654 14.4425C10.4331 14.4647 10.123 14.2874 9.94582 13.9995C9.76861 13.7115 9.79076 13.3571 9.96797 13.0691C9.61355 12.9805 9.32559 12.6704 9.25914 12.316C9.17053 11.9394 9.30344 11.5629 9.5914 11.3414C9.17053 10.9648 9.12623 10.3224 9.4585 9.87939C9.41419 9.87939 9.39204 9.85724 9.36989 9.85724C9.32559 10.0566 9.17053 10.2338 8.99332 10.3224C8.81612 10.4332 8.59461 10.4332 8.39525 10.3889C8.3731 10.854 7.97438 11.2306 7.5092 11.2528C7.64211 11.4964 7.66426 11.8065 7.55351 12.0723C7.44275 12.3382 7.22124 12.5375 6.95543 12.6261C7.30985 13.0691 7.2877 13.6894 6.88898 14.0881C7.08834 14.0881 7.2877 14.221 7.44275 14.4425Z" fill="#F05656"/>
<path d="M13.1798 20.7777C13.1134 20.2904 13.4678 19.8252 13.9773 19.7809C13.9994 19.7809 14.0216 19.7809 14.0437 19.7809L14.0216 19.648C13.9551 19.3157 14.1323 18.9613 14.4424 18.8505C14.3538 18.7619 14.2652 18.629 14.2652 18.5183C14.2209 18.2303 14.3538 17.9423 14.6196 17.8094C14.5532 17.7651 14.531 17.6765 14.5089 17.5879C14.5089 17.5215 14.5089 17.4329 14.5532 17.3664C14.3317 17.3664 14.1102 17.3 13.9108 17.1892C13.8887 17.2778 13.8444 17.3886 13.7558 17.455C13.6672 17.5436 13.5121 17.5879 13.4013 17.5436C13.4013 17.7873 13.2906 18.0088 13.0691 18.1417C12.8476 18.2746 12.6039 18.2525 12.3824 18.1417C12.3159 18.4075 12.1166 18.629 11.8508 18.6955C11.585 18.7619 11.297 18.6955 11.1198 18.474C11.0976 18.5626 10.9869 18.6733 10.9204 18.7176C10.7211 18.8948 10.4331 18.9834 10.1451 18.9391C9.85718 18.8948 9.63567 18.6955 9.50276 18.4518C9.2148 18.6955 8.83823 18.7619 8.50596 18.629C8.1737 18.4961 7.90789 18.2082 7.86358 17.8316C7.35411 17.9866 6.80034 17.7651 6.55667 17.3C6.51237 17.3221 6.46807 17.3443 6.42377 17.3443C6.53452 17.455 6.62313 17.6101 6.64528 17.7651C6.71173 18.0309 6.60098 18.2968 6.42377 18.474C6.82249 18.7398 6.95539 19.2714 6.71173 19.6701C6.99969 19.6923 7.24336 19.8252 7.42056 20.0467C7.59777 20.2682 7.66422 20.5562 7.61992 20.822C8.1737 20.7334 8.72747 21.0878 8.86038 21.6194C9.41416 21.1764 10.2337 21.2428 10.6768 21.7966L10.6989 21.8188C11.009 21.3758 11.5628 21.2207 12.0501 21.4422C12.2052 20.9992 12.6925 20.6891 13.1798 20.7777Z" fill="#F05656"/>
<path d="M15.8823 11.3857C15.9044 11.6293 15.838 11.8951 15.6608 12.0723C15.4835 12.2717 15.262 12.3825 14.9962 12.3825L15.0184 12.5154C15.0848 12.8476 14.9298 13.202 14.6197 13.3128H14.5975C14.8633 13.5786 14.8633 13.9995 14.5975 14.2431C14.5532 14.2874 14.5089 14.3317 14.4424 14.3539C14.5089 14.4425 14.5532 14.5311 14.531 14.6419C14.7526 14.6419 14.9962 14.7083 15.1956 14.8412C15.2842 14.664 15.4614 14.5754 15.6608 14.6197C15.6608 14.376 15.7715 14.1545 15.993 14.0216C16.2145 13.8887 16.4582 13.9109 16.6797 14.0216C16.6797 13.8666 16.7683 13.7337 16.9012 13.6229C17.2335 13.3571 17.6765 13.3792 17.9202 13.6894C18.1638 13.2463 18.6954 13.0913 19.1385 13.3128C19.2935 13.4014 19.4264 13.5343 19.515 13.6894C19.803 13.4457 20.1796 13.3792 20.5118 13.5122C20.8441 13.6451 21.1099 13.933 21.1542 14.3096C21.6637 14.1324 22.2175 14.3539 22.4611 14.8412L22.5719 14.7748C22.2618 14.4868 22.2396 13.9995 22.5276 13.6894C22.5497 13.6672 22.5497 13.6451 22.5719 13.6451C22.1732 13.3793 22.0402 12.8476 22.2839 12.4489C21.9959 12.4489 21.7301 12.316 21.5529 12.0723C21.3757 11.8508 21.3093 11.5629 21.3536 11.2749C20.7998 11.3635 20.246 11.0091 20.1131 10.4775C19.5593 10.9205 18.7397 10.8319 18.2967 10.2781C17.9866 10.7211 17.4107 10.8762 16.9234 10.6325C16.8348 11.142 16.3696 11.4521 15.8823 11.3857Z" fill="#F05656"/>
<path d="M10.9648 11.3413C11.3192 11.6958 11.3635 12.2717 11.0534 12.6704C11.2749 12.759 11.4521 12.9584 11.5407 13.1799C11.6293 13.4235 11.6072 13.6672 11.4964 13.8887L11.6293 13.933C11.9616 14.0216 12.1831 14.3317 12.1388 14.6418C12.3381 14.5754 12.5818 14.6197 12.759 14.7526C12.9362 14.8855 13.0248 15.107 13.0027 15.3285C13.1356 15.2842 13.2685 15.3285 13.3792 15.395C13.49 15.1956 13.6451 15.0184 13.8223 14.8855L13.7558 14.7083C13.7337 14.5754 13.8001 14.4425 13.8666 14.3317C13.6672 14.1988 13.5565 13.9995 13.5565 13.7558C13.5565 13.5343 13.6894 13.3128 13.8887 13.202C13.6894 13.0248 13.6008 12.7369 13.6672 12.471C13.7337 12.2052 13.9552 12.0059 14.221 11.9394C14.0438 11.6515 14.0659 11.297 14.221 11.0091C14.3982 10.7211 14.7083 10.5661 15.0406 10.5661C14.9741 10.2116 15.107 9.83507 15.395 9.59141C15.683 9.34775 16.0595 9.30345 16.4139 9.43636C16.5025 8.99333 16.8791 8.66107 17.3221 8.59462L17.3 8.35095C17.1449 8.41741 16.9677 8.43956 16.8127 8.39526C16.5247 8.30665 16.3696 8.06299 16.3032 7.79718C15.8823 8.04084 15.3728 7.90793 15.107 7.50922C14.952 7.75288 14.7083 7.90793 14.4425 7.95224C14.1767 7.99654 13.8887 7.93009 13.6672 7.75288C13.49 8.2845 12.9362 8.61677 12.3825 8.46171C12.4932 9.17054 12.028 9.83507 11.3192 9.96798C11.5407 10.4332 11.4078 11.0091 10.9648 11.3413Z" fill="#F05656"/>
<path d="M21.5087 20.1575C21.6194 19.8916 21.8409 19.6923 22.1067 19.6037C21.7523 19.1607 21.7745 18.5404 22.1732 18.1417C21.9295 18.0753 21.7302 17.9202 21.5973 17.7208H21.5751C21.3093 17.3664 21.2428 16.9013 21.3979 16.4804C20.8663 16.4361 20.4454 16.0152 20.4011 15.4836C19.9359 15.5943 19.4486 15.3285 19.2714 14.8855C19.072 15.0406 18.8062 15.107 18.5626 15.0627C18.3189 15.0184 18.0974 14.8634 17.9645 14.6418L17.8537 14.7526C17.6101 14.9741 17.2335 14.9963 16.9677 14.8191C16.9234 14.952 16.8348 15.0627 16.7462 15.1513C16.5247 15.3507 16.1924 15.3728 15.9487 15.1956C15.9266 15.3064 15.838 15.395 15.7272 15.4614C15.8158 15.6386 15.8823 15.8602 15.8823 16.0817H16.0595C16.2146 16.126 16.3032 16.2367 16.3253 16.3696C16.5247 16.2367 16.7683 16.2367 16.9898 16.3475C17.1892 16.4582 17.3443 16.6576 17.3443 16.9012C17.4993 16.8348 17.6765 16.8348 17.8316 16.9012C18.2081 17.0342 18.4075 17.4329 18.2968 17.8094C18.6512 17.7651 19.0056 17.9423 19.1828 18.2525C19.36 18.5626 19.3379 18.9391 19.1385 19.2271C19.4708 19.3379 19.7144 19.6258 19.7809 19.9802C19.8473 20.3347 19.7366 20.6891 19.4708 20.9327C19.8916 21.3093 19.9359 21.9517 19.6037 22.3947L19.7144 22.439C19.7587 22.2396 19.8916 22.0624 20.091 21.9738C20.2682 21.8631 20.4897 21.8409 20.6891 21.9074C20.7112 21.4201 21.1099 21.0435 21.5751 21.0435C21.4201 20.7334 21.42 20.4233 21.5087 20.1575Z" fill="#F05656"/>
<path d="M18.0974 20.822C17.743 20.4676 17.6987 19.8917 18.0088 19.4929C17.7651 19.4043 17.5879 19.205 17.4993 18.9835C17.4107 18.762 17.4329 18.4961 17.5436 18.2525L17.4107 18.2082C17.0785 18.1196 16.8791 17.8095 16.9012 17.4993V17.4772C16.7019 17.5436 16.4582 17.4993 16.281 17.3664C16.1038 17.2335 16.0152 17.0342 16.0152 16.8127C15.8823 16.8348 15.7494 16.7905 15.6608 16.7019C15.55 16.9013 15.3728 17.0563 15.1735 17.1671C15.3507 17.3221 15.3507 17.5658 15.2178 17.743C15.1956 17.7652 15.1956 17.7652 15.1735 17.7873C15.4836 17.9867 15.5943 18.3854 15.395 18.6955C15.3285 18.7841 15.2621 18.8727 15.1735 18.917C15.3728 19.0942 15.4614 19.3822 15.395 19.648C15.3285 19.9138 15.1292 20.1132 14.8633 20.1796C14.9076 20.2904 14.952 20.3568 14.952 20.4897C14.9963 20.7555 14.9298 21.0435 14.7304 21.265C14.5532 21.4644 14.2653 21.5751 13.9995 21.5751C14.0881 22.1289 13.7336 22.6384 13.1799 22.727C13.0027 22.7491 12.8255 22.7491 12.6482 22.6827C12.5596 23.1257 12.1831 23.458 11.7401 23.5244L11.7622 23.7681V23.7459C11.9616 23.6795 12.2052 23.7016 12.3824 23.8124C12.5596 23.9231 12.6925 24.1003 12.7368 24.3219C13.1577 24.0782 13.6672 24.2111 13.933 24.6098C14.0881 24.3662 14.3317 24.2111 14.5975 24.1668C14.8855 24.1225 15.1513 24.2111 15.3728 24.3883C15.5279 23.8345 16.126 23.5466 16.6576 23.6795C16.5468 22.9706 17.012 22.3061 17.7208 22.1732C17.5215 21.708 17.6765 21.1321 18.0974 20.822Z" fill="#F05656"/>
<path d="M23.1035 21.2648C22.9042 21.442 22.6605 21.5306 22.3947 21.5085C22.5054 21.8407 22.4168 22.2173 22.1732 22.461C21.9295 22.7046 21.553 22.7932 21.2207 22.6603C21.1985 22.9261 21.0213 23.1698 20.7777 23.2806C20.5119 23.3913 20.2017 23.347 19.9802 23.1698C19.8695 23.4135 19.6037 23.5685 19.3378 23.5464C19.3378 23.7014 19.2935 23.8343 19.2049 23.9672C18.917 24.6096 18.186 24.9197 17.5215 24.6539C17.5436 25.252 17.0784 25.7615 16.4582 25.7836C16.1703 25.7836 15.8823 25.695 15.6608 25.4735C15.5057 25.8279 15.1956 26.0494 14.819 26.0716C14.4425 26.0937 14.0881 25.8944 13.9108 25.5621C13.6893 25.8501 13.3349 25.983 12.9805 25.8944C12.6261 25.8058 12.3603 25.5178 12.2938 25.1855C12.028 25.2963 11.74 25.2742 11.5185 25.0969C11.297 24.9197 11.1863 24.6539 11.2306 24.366L10.9426 24.3438C10.6325 24.2552 10.4553 23.9229 10.5217 23.6128C10.3224 23.8122 10.0787 23.9008 9.79076 23.9229C9.05977 23.9894 8.43954 23.4799 8.37309 22.7932C7.99652 23.0147 7.53135 22.9704 7.17693 22.7046C6.82252 22.4388 6.66746 21.9958 6.77822 21.5749C6.24659 21.6414 5.75927 21.2427 5.71497 20.711C5.69282 20.4895 5.75927 20.2459 5.87002 20.0687C5.3827 20.0022 5.02828 19.537 5.09474 19.0497C5.11689 18.8282 5.24979 18.6067 5.427 18.4738C5.20549 18.2966 5.09474 18.0308 5.13904 17.7428C5.18334 17.4548 5.3827 17.2333 5.64851 17.1447C5.44915 16.9011 5.47131 16.5245 5.69282 16.303H5.71497C5.55991 16.2144 5.427 16.1036 5.31625 15.9486C4.89538 15.3726 5.00613 14.5752 5.55991 14.1322C5.18334 13.9107 4.96183 13.4898 5.02828 13.0689C5.07259 12.6259 5.3827 12.2715 5.80357 12.1386C5.58206 11.8285 5.55991 11.4298 5.73712 11.0975C5.91433 10.7652 6.29089 10.5659 6.66746 10.6102C6.53455 10.2779 6.62316 9.90134 6.86682 9.65768C7.11048 9.41402 7.48705 9.32541 7.81931 9.45832C7.84146 9.1925 8.01867 8.94884 8.28448 8.83809C8.5503 8.72733 8.83826 8.77164 9.05977 8.94884C9.17053 8.68303 9.43634 8.52798 9.70215 8.55013L9.7243 8.61658C9.7243 8.19571 9.94581 7.79699 10.3002 7.55333C10.6546 7.30967 11.0977 7.26537 11.4964 7.42042L11.5628 7.04386C11.6736 6.68944 11.9837 6.42363 12.3381 6.33502C12.6925 6.24642 13.0691 6.35717 13.3571 6.60084C13.49 6.24642 13.8222 6.00276 14.221 5.98061C14.5975 5.95846 14.9519 6.15782 15.1292 6.51223C15.3507 6.22427 15.7051 6.09136 16.0595 6.17997C16.4139 6.26857 16.6797 6.55653 16.7462 6.8888C17.012 6.77804 17.3 6.82235 17.5215 6.99955C17.743 7.17676 17.8537 7.46473 17.7873 7.73054C18.1195 7.66409 18.4518 7.88559 18.5183 8.21786C18.5404 8.30646 18.5404 8.37292 18.5183 8.46152C18.7176 8.26216 18.9613 8.17356 19.2492 8.12926C19.9802 8.08495 20.5783 8.59443 20.6448 9.28111C21.0213 9.0596 21.5086 9.08175 21.8631 9.34756C22.2175 9.61337 22.3725 10.0785 22.2618 10.4994C22.7934 10.433 23.2807 10.8317 23.325 11.3633C23.3472 11.5848 23.2807 11.8285 23.17 12.0057C23.5244 12.0721 23.8124 12.3158 23.901 12.6702C23.9896 13.0246 23.8788 13.3791 23.5908 13.6006C23.7459 13.7113 23.8567 13.8885 23.901 14.0657C23.9453 14.4423 23.7459 14.7967 23.3915 14.9518C23.5908 15.1954 23.5687 15.572 23.3472 15.7935C23.7238 16.015 23.9674 16.4137 23.9896 16.8346C24.0117 17.2776 23.8124 17.6763 23.4801 17.9422C23.5908 18.0086 23.6795 18.0751 23.7681 18.1858C24.0117 18.4738 24.0782 18.8504 23.9896 19.2048C23.8788 19.5592 23.613 19.825 23.2586 19.9358C23.5465 20.3788 23.4801 20.9547 23.1035 21.2648ZM26.404 6.15781L17.1892 0.841568C15.55 -0.110926 13.5121 -0.110926 11.873 0.841568L2.65812 6.15781C1.01895 7.11031 0 8.86024 0 10.7652V21.3977C0 23.3027 1.01895 25.0526 2.65812 26.0051L11.873 31.3214C13.5121 32.2739 15.55 32.2739 17.1892 31.3214L26.404 26.0051C28.0432 25.0526 29.0621 23.3027 29.0621 21.3977V10.7431C29.0621 8.86024 28.0432 7.11031 26.404 6.15781Z" fill="#F05656"/>
<path d="M132.214 45.0522V44.7646H132.229C133.41 44.7646 133.727 44.4196 133.727 43.1831V38.913C133.727 37.202 133.208 36.44 132.041 36.44C131.307 36.44 130.514 36.857 129.707 37.6621L129.679 37.6909V43.1831C129.679 44.3621 130.039 44.7503 131.206 44.7646V45.0522H126.12V44.7646C127.301 44.7359 127.647 44.3765 127.647 43.1831V38.0215C127.647 36.8426 127.417 36.4113 126.768 36.4113C126.552 36.4113 126.221 36.4831 125.962 36.5838V36.2819L128.915 35.3761C129.03 35.3473 129.131 35.3329 129.232 35.3329C129.52 35.3329 129.679 35.5198 129.679 35.8649V37.0439L129.866 36.8282C130.946 35.5486 131.854 35.0454 133.107 35.0454C134.88 35.0454 135.758 36.1812 135.758 38.5104V43.1831C135.758 44.3765 136.133 44.7646 137.314 44.7646V45.0522H132.214Z" fill="white"/>
<path d="M142.091 45.3541C140.824 45.3541 139.829 44.9228 139.051 44.017C138.288 43.14 137.899 41.961 137.899 40.5664C137.899 39.0424 138.346 37.7771 139.268 36.6988C140.19 35.5917 141.342 35.0454 142.812 35.0454C143.734 35.0454 144.454 35.3042 144.93 35.8074L145.117 35.9943V33.2338C145.117 31.7242 144.872 31.2497 144.094 31.2497C143.907 31.2497 143.575 31.3216 143.33 31.3935L143.345 31.0916L146.63 30.0707C146.673 30.0564 146.702 30.0564 146.745 30.0564C146.961 30.0564 147.134 30.2289 147.134 30.4446V42.1767C147.134 43.7151 147.393 44.4915 147.969 44.6496C148.099 44.6928 148.431 44.7215 148.877 44.7215V45.0091L145.679 44.9803H145.117V43.9739L144.944 44.1177C144.022 44.966 143.085 45.3541 142.091 45.3541ZM142.841 35.6493C141.256 35.6493 140.19 37.3171 140.19 39.8044C140.19 42.4355 141.429 44.2614 143.172 44.2614C143.791 44.2614 144.44 43.9595 145.102 43.3413L145.131 43.3125V38.7548C145.146 36.7851 144.31 35.6493 142.841 35.6493Z" fill="white"/>
<path d="M153.637 45.3541C152.326 45.3541 151.26 44.894 150.367 43.9451C149.517 42.9962 149.085 41.7885 149.085 40.3651C149.085 38.7979 149.517 37.5183 150.338 36.5407C151.188 35.5486 152.312 35.0454 153.695 35.0454C156.087 35.0454 157.643 36.555 157.686 38.8986H150.684V38.9992C150.684 41.7597 152.067 43.485 154.3 43.485C155.712 43.485 156.764 42.7949 157.426 41.429L157.657 41.6016C157.441 42.6511 156.98 43.5425 156.274 44.247C155.554 44.9947 154.689 45.3541 153.637 45.3541ZM153.191 35.678C151.88 35.678 150.828 36.7707 150.727 38.2372L150.713 38.3522H155.438L155.424 38.2372C155.352 36.6125 154.531 35.678 153.191 35.678Z" fill="white"/>
<path d="M159.47 45.0526V33.3348C159.47 31.897 159.211 31.4226 158.447 31.4226C158.231 31.4226 157.899 31.4801 157.655 31.552V31.2788L160.867 30.0711C160.911 30.0567 160.954 30.0423 160.997 30.0423H161.083C161.3 30.0423 161.472 30.2149 161.472 30.4305V43.1835C161.472 44.3193 161.876 44.7506 163 44.765V45.0526H159.47Z" fill="white"/>
<path d="M170.709 45.3543C169.902 45.3543 169.513 44.8942 169.485 43.9309L169.47 43.7152L169.297 43.859C168.145 44.8511 167.136 45.3686 166.301 45.3686C164.774 45.3686 163.808 44.4485 163.808 42.9963C163.808 42.2056 164.212 41.5011 165.018 40.8541C165.854 40.1927 167.324 39.517 169.384 38.8125L169.456 38.7837V38.7118C169.456 36.7708 169.168 35.6494 167.655 35.6494C166.373 35.6494 166.113 36.3395 166.113 36.929C166.113 37.9786 165.782 38.4962 165.091 38.4962C164.543 38.4962 164.168 38.108 164.168 37.5329C164.168 36.8715 164.5 36.3108 165.177 35.8219C165.883 35.3187 166.819 35.0599 167.986 35.0599C170.335 35.0599 171.473 36.0232 171.473 37.9929V42.4356C171.473 43.7009 171.66 44.0028 171.992 44.1034C172.02 44.1178 172.049 44.1178 172.092 44.1178C172.28 44.1178 172.51 43.974 172.784 43.6865L173 43.9596C172.28 44.8798 171.502 45.3543 170.709 45.3543ZM169.341 39.3588C166.675 40.4371 165.868 41.1848 165.868 42.5075C165.868 43.3989 166.517 44.0747 167.367 44.0747C167.929 44.0747 168.62 43.7871 169.441 43.1976L169.485 43.1689V39.3157L169.341 39.3588Z" fill="white"/>
<path d="M123.047 45.3542C122.241 45.3542 121.852 44.8942 121.823 43.9309L121.808 43.7152L121.635 43.859C120.483 44.851 119.474 45.3686 118.639 45.3686C117.112 45.3686 116.146 44.4485 116.146 42.9963C116.146 42.2055 116.55 41.501 117.356 40.8541C118.192 40.1927 119.662 39.5169 121.722 38.8124L121.794 38.7837V38.7118C121.794 36.7708 121.506 35.6494 119.993 35.6494C118.711 35.6494 118.451 36.3395 118.451 36.929C118.451 37.9785 118.12 38.4961 117.429 38.4961C116.881 38.4961 116.506 38.1079 116.506 37.5328C116.506 36.8715 116.838 36.3107 117.515 35.8219C118.207 35.3187 119.157 35.0599 120.324 35.0599C122.673 35.0599 123.811 36.0232 123.811 37.9929V42.4356C123.811 43.7008 123.998 44.0027 124.33 44.1034C124.358 44.1178 124.387 44.1178 124.43 44.1178C124.618 44.1178 124.848 43.974 125.122 43.6864L125.338 43.9596C124.632 44.8798 123.854 45.3542 123.047 45.3542ZM121.679 39.3588C119.013 40.4371 118.207 41.1704 118.207 42.5075C118.207 43.3989 118.855 44.0746 119.705 44.0746C120.267 44.0746 120.958 43.7871 121.779 43.1976L121.823 43.1688V39.3156L121.679 39.3588Z" fill="white"/>
<path d="M64 43.2371V36.6024H64.5268V37.5302H64.5823C64.6377 37.3896 64.7486 37.249 64.8595 37.0804C64.9704 36.9398 65.1368 36.7992 65.3309 36.6868C65.5249 36.5743 65.7745 36.5181 66.0517 36.5181C66.4399 36.5181 66.8003 36.6305 67.0776 36.8273C67.3826 37.0241 67.6044 37.3334 67.7707 37.6988C67.9371 38.0643 68.0203 38.5141 68.0203 38.992C68.0203 39.4981 67.9371 39.9198 67.7707 40.3134C67.6044 40.6788 67.3826 40.9881 67.0776 41.1849C66.7726 41.3817 66.4399 41.4941 66.0517 41.4941C65.7745 41.4941 65.5249 41.4379 65.3309 41.3254C65.1368 41.213 64.9704 41.1005 64.8595 40.9318C64.7486 40.7913 64.6377 40.6226 64.5823 40.482H64.5268V43.1809H64V43.2371ZM64.5545 39.0202C64.5545 39.4137 64.61 39.7511 64.7209 40.0603C64.8318 40.3696 64.9981 40.5945 65.2199 40.7632C65.4418 40.9318 65.6913 41.0162 65.9963 41.0162C66.3013 41.0162 66.5785 40.9318 66.8003 40.7632C67.0221 40.5945 67.1885 40.3415 67.2994 40.0322C67.4103 39.723 67.4657 39.3856 67.4657 39.0202C67.4657 38.6547 67.4103 38.3173 67.2994 38.0081C67.1885 37.6988 67.0221 37.4739 66.8003 37.3053C66.5785 37.1366 66.3013 37.0522 65.9963 37.0522C65.6913 37.0522 65.414 37.1366 65.2199 37.3053C64.9981 37.4739 64.8318 37.6988 64.7209 38.0081C64.61 38.2892 64.5545 38.6266 64.5545 39.0202Z" fill="white"/>
<path d="M71.0424 41.5223C70.6265 41.5223 70.2661 41.4098 69.9611 41.213C69.6561 40.9881 69.4066 40.707 69.2125 40.3415C69.0461 39.9761 68.9352 39.5262 68.9352 39.0483C68.9352 38.5423 69.0184 38.1206 69.2125 37.7551C69.3789 37.3896 69.6284 37.0804 69.9611 36.8836C70.2661 36.6868 70.6265 36.5744 71.0424 36.5744C71.4583 36.5744 71.8187 36.6868 72.1237 36.8836C72.4287 37.1085 72.6782 37.3896 72.8723 37.7551C73.0387 38.1206 73.1496 38.5704 73.1496 39.0483C73.1496 39.5262 73.0664 39.9761 72.8723 40.3415C72.6782 40.707 72.4564 41.0162 72.1237 41.213C71.8187 41.4379 71.4306 41.5223 71.0424 41.5223ZM71.0424 41.0162C71.3751 41.0162 71.6524 40.9319 71.8742 40.7351C72.096 40.5664 72.2901 40.3134 72.401 40.0042C72.5119 39.6949 72.5673 39.3857 72.5673 39.0202C72.5673 38.6547 72.5119 38.3174 72.401 38.0363C72.2901 37.727 72.096 37.5021 71.8742 37.3053C71.6524 37.1366 71.3751 37.0242 71.0424 37.0242C70.7097 37.0242 70.4324 37.1085 70.2106 37.3053C69.9888 37.474 69.7947 37.727 69.6838 38.0363C69.5729 38.3455 69.5175 38.6547 69.5175 39.0202C69.5175 39.3857 69.5729 39.723 69.6838 40.0042C69.7947 40.3134 69.9888 40.5383 70.2106 40.7351C70.4324 40.9319 70.7097 41.0162 71.0424 41.0162Z" fill="white"/>
<path d="M75.2013 41.4379L73.7595 36.6024H74.3418L75.4785 40.5664H75.5063L76.643 36.6024H77.2253L78.3343 40.5664H78.3898L79.5265 36.6024H80.1088L78.667 41.4379H78.0848L76.948 37.4739H76.8925L75.7558 41.4379H75.2013Z" fill="white"/>
<path d="M82.8814 41.5223C82.4378 41.5223 82.0496 41.4099 81.7169 41.2131C81.3842 41.0163 81.1347 40.707 80.9683 40.3416C80.8019 39.9761 80.691 39.5263 80.691 39.0484C80.691 38.5704 80.7742 38.1206 80.9683 37.7552C81.1347 37.3897 81.3842 37.0804 81.6892 36.8555C81.9942 36.6306 82.3546 36.5463 82.7705 36.5463C83.02 36.5463 83.2696 36.6025 83.5191 36.6869C83.7686 36.7712 83.9627 36.9399 84.1568 37.1367C84.3509 37.3335 84.4895 37.5865 84.6004 37.8676C84.7113 38.1769 84.7668 38.5142 84.7668 38.9078V39.1889H81.0515V38.6829H84.2122C84.2122 38.3736 84.1568 38.0925 84.0182 37.8395C83.9072 37.5865 83.7132 37.3897 83.5191 37.2491C83.2973 37.1086 83.0477 37.0242 82.7705 37.0242C82.4655 37.0242 82.216 37.1086 81.9664 37.2772C81.7446 37.4459 81.5505 37.6427 81.4396 37.9238C81.301 38.205 81.2456 38.4861 81.2456 38.7953V39.0765C81.2456 39.4701 81.301 39.8074 81.4396 40.0885C81.5783 40.3697 81.7446 40.5946 81.9942 40.7633C82.2437 40.9319 82.5209 40.9882 82.8537 40.9882C83.0755 40.9882 83.2696 40.9601 83.4359 40.8757C83.6023 40.7914 83.7409 40.707 83.8795 40.5946C83.9904 40.4821 84.0736 40.3416 84.1568 40.201L84.6836 40.3697C84.6004 40.5665 84.4895 40.7633 84.3231 40.9319C84.1568 41.1006 83.9627 41.2412 83.7132 41.3536C83.4636 41.4942 83.1864 41.5223 82.8814 41.5223Z" fill="white"/>
<path d="M85.9589 41.4379V36.6024H86.4857V37.3334H86.5134C86.5966 37.0804 86.763 36.8836 87.0125 36.743C87.262 36.6024 87.5116 36.5181 87.8166 36.5181C87.872 36.5181 87.8997 36.5181 87.9552 36.5181C88.0106 36.5181 88.0661 36.5181 88.0938 36.5181V37.0804C88.0661 37.0804 88.0384 37.0804 87.9552 37.0522C87.8997 37.0522 87.8166 37.0522 87.7611 37.0522C87.5116 37.0522 87.2898 37.1085 87.0957 37.2209C86.9016 37.3334 86.763 37.4739 86.6521 37.6707C86.5412 37.8675 86.4857 38.0643 86.4857 38.3173V41.4379H85.9589Z" fill="white"/>
<path d="M90.811 41.5223C90.3674 41.5223 89.9792 41.4099 89.6465 41.2131C89.3138 41.0163 89.0643 40.707 88.8979 40.3416C88.7316 39.9761 88.6207 39.5263 88.6207 39.0484C88.6207 38.5704 88.7038 38.1206 88.8979 37.7552C89.0643 37.3897 89.3138 37.0804 89.6188 36.8555C89.9238 36.6306 90.2842 36.5463 90.7001 36.5463C90.9496 36.5463 91.1992 36.6025 91.4487 36.6869C91.6982 36.7712 91.8923 36.9399 92.0864 37.1367C92.2805 37.3335 92.4191 37.5865 92.53 37.8676C92.6409 38.1769 92.6964 38.5142 92.6964 38.9078V39.1889H88.9811V38.6829H92.1418C92.1418 38.3736 92.0864 38.0925 91.9478 37.8395C91.8369 37.5865 91.6428 37.3897 91.4487 37.2491C91.2269 37.1086 90.9774 37.0242 90.7001 37.0242C90.3951 37.0242 90.1456 37.1086 89.8961 37.2772C89.6742 37.4459 89.4802 37.6427 89.3693 37.9238C89.2306 38.205 89.1752 38.4861 89.1752 38.7953V39.0765C89.1752 39.4701 89.2306 39.8074 89.3693 40.0885C89.5079 40.3697 89.6742 40.5946 89.9238 40.7633C90.1733 40.9319 90.4506 40.9882 90.7833 40.9882C91.0051 40.9882 91.1992 40.9601 91.3655 40.8757C91.5319 40.7914 91.6705 40.707 91.8091 40.5946C91.9201 40.4821 92.0032 40.3416 92.0864 40.201L92.6132 40.3697C92.53 40.5665 92.4191 40.7633 92.2528 40.9319C92.0864 41.1006 91.8923 41.2412 91.6428 41.3536C91.3932 41.4942 91.116 41.5223 90.811 41.5223Z" fill="white"/>
<path d="M95.6076 41.5222C95.2194 41.5222 94.8867 41.4097 94.5817 41.213C94.2767 41.0162 94.0549 40.7069 93.8886 40.3414C93.7222 39.976 93.639 39.5262 93.639 39.0201C93.639 38.5141 93.7222 38.0924 93.8886 37.7269C94.0549 37.3615 94.2767 37.0522 94.5817 36.8554C94.8867 36.6586 95.2194 36.5462 95.6076 36.5462C95.8848 36.5462 96.1344 36.6024 96.3285 36.7149C96.5225 36.8273 96.6612 36.9398 96.7998 37.1084C96.9107 37.249 96.9939 37.4177 97.0771 37.5583H97.1325V35.0281H97.687V41.466H97.1602V40.5664H97.1048C97.0493 40.7069 96.9384 40.8756 96.8275 41.0162C96.7166 41.1567 96.5503 41.2973 96.3562 41.4097C96.1344 41.4941 95.9126 41.5222 95.6076 41.5222ZM95.6908 41.0162C95.9957 41.0162 96.273 40.9318 96.4671 40.7631C96.6889 40.5945 96.8552 40.3696 96.9661 40.0603C97.0771 39.7511 97.1325 39.4137 97.1325 39.0201C97.1325 38.6266 97.0771 38.2892 96.9661 38.0081C96.8552 37.6988 96.6889 37.4739 96.4671 37.3052C96.2453 37.1366 95.9957 37.0522 95.6908 37.0522C95.3858 37.0522 95.1085 37.1366 94.8867 37.3052C94.6649 37.4739 94.4985 37.7269 94.3876 38.0081C94.2767 38.3173 94.2213 38.6266 94.2213 39.0201C94.2213 39.3856 94.2767 39.723 94.3876 40.0322C94.4985 40.3415 94.6649 40.5664 94.8867 40.7631C95.1085 40.9318 95.3581 41.0162 95.6908 41.0162Z" fill="white"/>
<path d="M101.735 41.4379V35H102.29V37.5302H102.345C102.4 37.3896 102.484 37.249 102.622 37.0804C102.733 36.9398 102.899 36.7992 103.094 36.6868C103.288 36.5743 103.537 36.5181 103.814 36.5181C104.203 36.5181 104.535 36.6306 104.84 36.8274C105.145 37.0241 105.367 37.3334 105.533 37.6989C105.7 38.0643 105.783 38.5141 105.783 38.9921C105.783 39.4981 105.7 39.9198 105.533 40.3134C105.367 40.6788 105.145 40.9881 104.84 41.1849C104.535 41.3817 104.203 41.4941 103.814 41.4941C103.537 41.4941 103.288 41.4379 103.094 41.3254C102.899 41.213 102.733 41.1005 102.622 40.9319C102.511 40.7913 102.4 40.6226 102.345 40.4821H102.29V41.3817H101.735V41.4379ZM102.262 39.0202C102.262 39.4138 102.317 39.7511 102.428 40.0604C102.539 40.3696 102.705 40.5945 102.927 40.7632C103.149 40.9319 103.399 41.0162 103.704 41.0162C104.009 41.0162 104.286 40.9319 104.508 40.7632C104.729 40.5945 104.896 40.3415 105.007 40.0322C105.118 39.723 105.173 39.3856 105.173 39.0202C105.173 38.6547 105.118 38.3173 105.007 38.0081C104.896 37.6989 104.729 37.474 104.508 37.3053C104.286 37.1366 104.009 37.0523 103.704 37.0523C103.399 37.0523 103.121 37.1366 102.927 37.3053C102.705 37.474 102.539 37.6989 102.428 38.0081C102.317 38.2892 102.262 38.6266 102.262 39.0202Z" fill="white"/>
<path d="M107.114 43.2372C107.003 43.2372 106.892 43.2372 106.809 43.209C106.726 43.1809 106.643 43.1528 106.587 43.1528L106.726 42.6468C106.92 42.703 107.086 42.7311 107.225 42.703C107.363 42.6749 107.502 42.6187 107.613 42.5062C107.724 42.3938 107.835 42.197 107.918 41.9721L108.084 41.4941L106.338 36.6306H106.947L108.362 40.707H108.417L109.831 36.6306H110.441L108.417 42.2251C108.334 42.45 108.223 42.6468 108.112 42.8155C108.001 42.9841 107.835 43.0966 107.696 43.1528C107.502 43.209 107.336 43.2372 107.114 43.2372Z" fill="white"/>
</svg>
